<?xml version="1.0" encoding="UTF-8"?>
<svg id="svg" xmlns="http://www.w3.org/2000/svg" viewBox="0 0 382.46 86.16">
  <defs>
    <style>
      .cls-1 {
        fill: #143474;
      }

      .cls-1, .cls-2 {
        fill-rule: evenodd;
      }

      .cls-2 {
        fill: #2e4c9b;
      }
    </style>
  </defs>
  <path id="path0" class="cls-1" d="M35.24.36c-.1.1-.84.22-1.66.27-.82.05-1.56.16-1.66.23-.09.07-.56.18-1.04.25s-.92.18-.96.26-.29.14-.54.15c-.25,0-.66.11-.93.25s-.64.25-.84.25-.51.11-.69.24c-.18.13-.48.25-.67.25-.19,0-.49.12-.67.25-.18.13-.43.25-.56.25-.31,0-3.31,1.47-3.43,1.68-.05.09-.2.16-.32.16-.39,0-1.98,1.16-1.73,1.25.72.28,38.25,0,38.54-.3.16-.16.43-.29.6-.29s.36-.08.42-.17.23-.17.39-.17c.15,0,.5-.11.76-.25.26-.14.68-.25.93-.25s.59-.11.77-.24c.18-.13.63-.25,1-.25.37,0,.77-.1.88-.21.11-.11.71-.26,1.33-.32.61-.06,1.49-.19,1.95-.29,1.3-.28,275.99-.17,276.27.11.12.11.61.21,1.1.21s1.16.11,1.49.25c.33.14.81.25,1.06.25s.67.11.94.25.64.25.84.25c.2,0,.41.08.47.17.06.09.23.17.39.17.15,0,.5.11.76.25.26.14.55.25.64.25.18,0,1.24.44,1.63.68.14.09.34.19.46.24.11.05.3.12.42.17.11.05.58.31,1.04.59.46.28.98.58,1.17.66.61.3,3.35,2.21,3.67,2.56.09.1.69.61,1.34,1.13,1.25,1.01,2.75,2.53,3.83,3.88.36.45.82,1,1.02,1.22.43.47,2.17,3.04,2.62,3.87.57,1.06.68,1.24,1.14,1.96.25.39.45.81.45.94s.11.33.25.44.25.39.25.6.08.4.17.4.17.08.17.18.15.53.34.96c.6,1.36.94,2.31,1.15,3.12.07.28.21.67.32.86.11.2.19.59.19.86s.07.54.16.6c.09.05.21.45.26.89.06.43.15.9.21,1.04.86,2.14,1.24,15.41.48,17.17-.06.14-.18.7-.27,1.25-.34,2.12-.53,3-.68,3.16-.09.09-.16.39-.16.68s-.11.66-.24.84c-.13.18-.25.56-.25.85,0,.29-.12.61-.26.73-.14.11-.25.35-.25.51s-.11.55-.24.86c-.13.3-.36.85-.51,1.21-.56,1.35-1.69,3.54-2.63,5.08-1.26,2.07-1.34,2.2-1.54,2.44-.09.11-.58.75-1.08,1.42-2.07,2.76-7.64,7.81-9.46,8.58-.3.12-.54.28-.54.35s-.36.3-.79.51c-.44.21-1.05.53-1.38.7-1.35.73-3.61,1.64-4.42,1.79-.27.05-.65.19-.83.32-.18.12-.57.23-.86.23s-.58.07-.63.15c-.05.08-.53.2-1.05.26-.53.06-1.14.19-1.36.3-.57.28-278.69.29-279.03,0-.13-.1-.7-.24-1.28-.31-.57-.07-1.08-.18-1.14-.27-.05-.08-.29-.15-.54-.15-.25,0-.66-.11-.93-.25s-.64-.25-.83-.25c-.2,0-.5-.12-.68-.25-.18-.13-.43-.24-.57-.24s-.7-.21-1.26-.48c-.56-.26-1.29-.6-1.63-.75-.34-.15-.66-.35-.72-.44-.06-.1-6.91-.16-18.96-.16-18.45,0-18.85,0-18.52.31.18.17.5.36.7.43.2.06.36.19.36.27s.08.15.17.15.49.21.88.46c.88.57,3.47,1.88,3.73,1.88.1,0,.28.11.4.25.11.14.37.25.56.26.19,0,.5.12.68.25.18.13.49.24.7.24s.42.07.48.17c.06.09.23.17.38.17.16,0,.5.11.76.25.26.14.67.25.92.25.24,0,.63.11.86.24s.7.24,1.05.24c.35,0,.8.1,1,.21.2.11,1,.26,1.78.32.78.06,1.87.19,2.42.28,1.39.23,308.57.23,310.17,0,.64-.09,1.8-.22,2.58-.29s1.58-.22,1.78-.33c.2-.11.62-.2.94-.2s.79-.11,1.05-.25c.26-.14.72-.25,1.02-.25.3,0,.54-.07.54-.15s.3-.2.67-.26.71-.18.76-.26c.05-.08.22-.15.38-.15.15,0,.5-.11.76-.25s.61-.25.77-.25.39-.11.5-.25c.11-.14.29-.25.4-.25.25,0,2.34-1.05,2.41-1.21.03-.07.16-.12.28-.12.21,0,1.33-.69,3.21-1.98.48-.33,1.01-.68,1.17-.77.16-.09.33-.22.38-.29.05-.07.35-.32.66-.54.83-.61,2.2-1.84,3.47-3.1,1.16-1.15,1.35-1.37,2.44-2.73.36-.46.71-.87.77-.91.26-.2,2.63-3.71,2.93-4.33.07-.14.17-.29.22-.33.11-.09.6-1.01,1.29-2.42.23-.46.48-.95.56-1.08.08-.14.19-.36.25-.5.05-.14.2-.45.33-.69.13-.24.24-.56.24-.69s.12-.5.28-.81c.51-1.02.55-1.13.56-1.43,0-.16.11-.51.25-.77s.25-.6.25-.75c0-.15.11-.49.25-.75s.25-.71.26-1c0-.29.11-.71.24-.94.13-.23.24-.7.24-1.05,0-.35.09-.78.18-.96.96-1.79.96-17,.01-18.78-.1-.19-.18-.63-.19-.98,0-.35-.11-.85-.25-1.11-.14-.26-.25-.69-.25-.94s-.11-.68-.25-.94-.25-.59-.26-.73c0-.31-.57-1.97-.72-2.12-.06-.06-.11-.21-.11-.35,0-.24-.33-1.08-.76-1.93-.13-.26-.24-.61-.24-.77s-.11-.39-.25-.51c-.14-.11-.25-.35-.25-.52s-.07-.31-.15-.31-.23-.21-.33-.46c-.1-.25-.43-.91-.74-1.46-.31-.55-.7-1.26-.88-1.57-.17-.32-.37-.65-.44-.75-.47-.68-2.7-3.69-2.78-3.76-.05-.05-.4-.46-.77-.92-1.53-1.91-5.51-5.54-7.33-6.68-.27-.17-.54-.36-.58-.41-.05-.05-.57-.39-1.17-.74-.6-.36-1.11-.71-1.14-.78-.03-.07-.2-.13-.36-.13s-.36-.07-.41-.16c-.12-.2-2.45-1.34-2.73-1.34-.11,0-.19-.07-.19-.17s-.17-.17-.38-.17-.53-.11-.71-.24c-.18-.14-.45-.25-.6-.25-.15,0-.49-.12-.75-.25-.26-.14-.6-.25-.75-.25-.15,0-.49-.11-.75-.25-.26-.14-.65-.25-.85-.25-.21,0-.51-.07-.67-.15-.44-.23-1.96-.52-3.62-.7-.82-.09-1.57-.23-1.66-.32-.23-.23-311.8-.22-312.04,0M12.17,11.85c-.6.6-1.26,1.31-1.47,1.58-.21.27-.63.77-.93,1.09-.79.86-.99,1.27-.66,1.39.14.06,8.21.1,17.92.1h17.66l2.49-2.54c1.37-1.4,2.47-2.56,2.44-2.58-.02-.02-8.21-.06-18.2-.09l-18.15-.04-1.09,1.08M5.62,20.65c-.15.17-.28.39-.28.49,0,.24-.55,1.28-.71,1.35-.07.03-.12.19-.12.35s-.11.39-.25.51c-.14.11-.25.33-.25.49s-.11.43-.24.6c-.14.18-.25.53-.25.78v.46s17.79,0,17.79,0h17.79s1.08-2.26,1.08-2.26c.6-1.24,1.18-2.33,1.29-2.43.75-.65.96-.64-17.68-.64-17.12,0-17.9.01-18.17.31M336.17,20.88c-.41.09-1.16.19-1.67.24-.51.05-1.15.19-1.44.32-.29.13-.71.24-.95.24s-.63.11-.89.24c-.54.27-1.52.7-1.89.83-.14.05-.62.31-1.08.59-.46.28-.95.56-1.08.62-1.67.76-5.51,4.77-6.44,6.72-.07.14-.16.29-.22.33-.11.1-.55.99-.93,1.92-.15.37-.38.91-.51,1.21-.13.3-.24.7-.24.89s-.09.5-.2.7c-.11.2-.26.85-.32,1.45-.07.6-.2,1.79-.3,2.66-.12,1.1-.12,1.97,0,2.92.1.74.24,1.82.31,2.4.07.58.22,1.14.32,1.24.1.1.19.42.19.69,0,.28.12.65.25.83.14.18.24.46.24.63s.07.43.16.59c.09.16.43.85.75,1.54.71,1.49.94,1.87,1.21,2.05.11.07.21.24.21.36s.06.25.13.28c.07.03.38.39.69.81.7.93,1.95,2.13,3.26,3.14.55.42,1.02.83,1.05.9.03.07.2.13.38.13s.37.11.42.25c.05.14.23.25.39.25s.39.11.5.25c.11.14.34.25.5.25s.39.11.5.25c.11.14.31.25.44.25.23,0,.36.05,1.37.56.31.15.76.28,1.01.28s.6.11.78.25c.18.13.67.25,1.09.25.42,0,1.09.12,1.48.25,1.01.36,5.92.36,6.61,0,.26-.14.86-.25,1.33-.25.47,0,1.07-.11,1.33-.25s.72-.25,1.01-.25c.29,0,.57-.07.62-.15.05-.08.36-.2.7-.26.33-.06.73-.17.88-.24.15-.07.53-.24.85-.38.98-.42,2.06-.96,2.58-1.31.27-.18.61-.38.75-.44.29-.14.33-.17,1.41-1.09,1.96-1.68,4.23-4.56,4.66-5.92.07-.2.19-.37.27-.37s.16-.17.16-.38c0-.21.12-.52.25-.7.14-.18.24-.49.24-.69s.11-.45.23-.56c.13-.11.27-.47.32-.81.05-.34.22-1.18.38-1.87.33-1.42.53-7.23.26-7.56-.08-.11-.21-.66-.27-1.23s-.19-1.08-.27-1.13c-.08-.05-.15-.34-.15-.65s-.11-.65-.25-.76-.25-.37-.25-.57-.11-.51-.24-.69c-.13-.18-.25-.42-.25-.54,0-.12-.12-.33-.26-.47-.14-.14-.25-.4-.25-.57s-.06-.32-.13-.32-.27-.28-.45-.62c-.18-.34-.53-.85-.79-1.12-.25-.27-.46-.57-.46-.68,0-.18-2.19-2.47-3.02-3.17-.9-.75-2.17-1.53-3.65-2.25-.6-.29-1.3-.63-1.55-.76-.26-.13-.64-.24-.83-.24-.2,0-.55-.11-.78-.24-.23-.13-.67-.24-.97-.24-.3,0-.72-.1-.92-.21-.2-.11-.85-.26-1.45-.32-.6-.07-1.46-.19-1.92-.29-1.03-.21-4.24-.2-5.25.01M68.92,21.17c-.92.06-1.83.2-2.03.31-.2.11-.62.2-.94.2s-.79.11-1.05.25c-.26.14-.6.25-.75.25-.15,0-.49.11-.75.25-.26.14-.61.25-.77.25-.16,0-.29.08-.29.17s-.14.17-.31.17-.41.11-.52.25c-.11.14-.31.25-.44.25-1.23,0-6.13,4.61-7.31,6.88-.18.34-.38.62-.45.62s-.13.14-.13.31-.11.41-.25.52c-.14.11-.25.37-.26.56,0,.19-.11.5-.25.68-.13.18-.25.48-.25.67,0,.19-.11.49-.25.67-.13.18-.24.56-.24.84s-.08.59-.17.69c-.58.58-1.01,8.83-.47,9.16.08.05.14.36.14.7,0,.34.11.83.25,1.09.14.26.25.64.25.84s.11.51.24.69c.14.18.25.48.25.68,0,.19.12.45.26.56.14.11.25.35.25.52s.07.31.16.31.21.17.27.38c.06.21.16.41.22.46.06.05.4.53.77,1.08.78,1.18,3.57,4.02,4.61,4.69.4.26.76.51.81.56.14.14.73.5,1,.6.14.05.36.16.5.25.14.08.36.2.5.25.14.05.47.2.75.32,1.32.58,1.73.75,1.9.75.1,0,.32.07.47.16.16.09.65.2,1.08.26s.79.16.79.23.8.18,1.78.24c.98.06,1.86.18,1.95.28.22.22,3.65.22,3.87,0,.09-.09,1.03-.22,2.08-.27,1.05-.06,1.99-.17,2.1-.25.1-.08.59-.19,1.08-.25.49-.06.97-.16,1.06-.22.09-.07.52-.17.96-.24.43-.06.83-.19.88-.27.05-.09.3-.16.56-.16s.6-.11.78-.25c.18-.13.48-.25.68-.25.19,0,.45-.12.56-.25.11-.14.31-.25.44-.25s.36-.07.52-.16c.5-.28,1.85-.84,2.02-.84.09,0,.19-.06.22-.12.03-.07.4-.29.83-.5,1.22-.6,1.15-.02,1.1-8.81l-.04-7.98-8.79-.04-8.79-.04v3.67h4.74c4.52,0,4.75.01,4.92.32.2.37.24,10.82.04,11.11-.14.2-2.17,1.24-2.42,1.24-.09,0-.39.1-.68.23-2.17.94-6.86.94-9.05,0-.29-.12-.57-.23-.63-.23-.67,0-4.26-3.35-4.26-3.97,0-.11-.06-.19-.12-.19s-.38-.54-.68-1.21c-.31-.66-.66-1.41-.79-1.65-.13-.24-.24-.59-.24-.77s-.11-.6-.25-.93c-.14-.33-.25-.93-.25-1.34,0-.44-.08-.77-.21-.81-.16-.05-.21-1.09-.21-4.42s.05-4.4.21-4.56c.11-.11.21-.54.21-.94s.11-.97.24-1.26c.13-.29.27-.71.32-.94.13-.65.54-1.66.75-1.87.11-.11.19-.29.19-.41,0-.32,1.34-2.19,2.25-3.13.55-.57,1.69-1.47,2.08-1.64.14-.06.36-.18.5-.26.66-.39,1.57-.69,2.08-.69.31,0,.61-.08.67-.17.06-.09.8-.17,1.67-.17s1.61.08,1.67.17c.06.09.49.17.97.17.49,0,1,.11,1.19.25.18.13.51.25.75.25.23,0,.57.11.75.25.18.13.46.24.63.24s.58.18.93.39c.34.22.79.44,1,.51.21.06.38.19.38.27s.1.16.21.16.6.34,1.08.76c.96.84,1.14.85,1.97.11.28-.25.83-.71,1.21-1.02.38-.31.69-.67.69-.79,0-.28-1.78-2.03-2.2-2.16-.17-.05-.3-.16-.3-.23s-.13-.18-.29-.24c-.16-.06-.52-.25-.79-.44-.28-.18-.61-.38-.75-.43-.73-.29-1.13-.46-1.58-.66-.28-.12-.78-.27-1.12-.32-.34-.06-.62-.17-.62-.26s-.38-.16-.84-.16-1.04-.1-1.29-.23c-.53-.27-5.54-.45-8.12-.28M296.42,21.18c-1.1.06-2.21.19-2.47.3-.26.11-.7.2-.98.2-.5,0-1.72.35-2.75.78-.29.12-.6.22-.69.22-.23,0-2.89,1.37-3.17,1.62-.12.12-.29.21-.37.21-.15,0-.52.28-1.66,1.29-.34.3-.66.54-.71.54-.15,0-1.13,1.01-1.77,1.84-.32.41-.66.83-.75.95-.44.53-.53.65-.64.88-.07.14-.28.51-.48.83-.69,1.12-1.47,2.74-1.47,3.03,0,.17-.07.3-.17.3s-.17.21-.17.47-.11.61-.24.79c-.13.18-.25.59-.26.91,0,.32-.12.77-.25,1-.35.62-.35,6.55,0,7.39.14.33.25.84.26,1.15,0,.3.12.69.25.87.13.18.24.5.24.71s.07.52.16.68c.09.16.32.66.51,1.12.19.46.47,1.06.62,1.33.15.28.35.65.45.83.1.18.22.37.26.42.05.05.36.5.71,1,.75,1.1,3.05,3.39,4.21,4.18.46.31.87.61.92.65.05.05.35.23.67.4.32.17.98.53,1.46.79.48.26,1.02.47,1.21.47s.34.07.34.16.28.21.62.27c.34.06.7.17.79.24.09.07.5.17.91.24.41.06.82.17.92.25.1.08.8.19,1.57.25.77.06,1.53.18,1.7.27.4.21,5.04.21,5.26,0,.09-.09.76-.21,1.49-.27.73-.06,1.4-.16,1.49-.24.09-.07.47-.18.83-.24.37-.06.93-.22,1.25-.36.32-.14.73-.31.92-.38.7-.29,2.67-1.26,2.75-1.36.05-.06.38-.26.74-.45.36-.19.7-.41.75-.48.05-.07.4-.33.76-.57,1.71-1.12,1.83-1.41.88-2.11-.39-.29-.95-.75-1.24-1.03-.7-.67-.92-.65-1.83.22-.42.4-.96.83-1.2.96-.24.12-.48.27-.52.32-.13.16-2.21,1.12-2.67,1.23-.23.06-.57.17-.75.24-1.59.64-6.58.94-7.34.44-.22-.14-.58-.26-.8-.26-1.38,0-5.08-2.96-5.83-4.67-.1-.23-.28-.52-.39-.64-.12-.12-.21-.36-.21-.54s-.07-.32-.17-.32-.17-.08-.17-.18-.1-.42-.22-.71c-.45-1.06-.65-1.71-.78-2.53-.07-.46-.21-1.04-.32-1.3-.29-.75-.24-9.58.07-10.11.13-.23.24-.69.24-1.02,0-.33.12-.82.26-1.08.14-.26.25-.65.25-.85,0-.21.08-.38.17-.38s.17-.11.17-.25c0-1.1,3.15-5.05,4.58-5.74.27-.13.6-.32.73-.41.97-.72,5.91-1.44,6.41-.94.1.1.56.18,1.02.19.46,0,1.03.11,1.26.24s.58.24.78.24c.2,0,.57.11.83.25.26.13.77.37,1.14.52.37.16.7.33.75.39.05.05.35.23.67.4.32.16.88.56,1.25.88,1.05.92,1.1.93,1.78.35.33-.29.95-.81,1.37-1.16.9-.74.91-.79.31-1.35-.92-.85-1.63-1.43-1.74-1.44-.06,0-.22-.1-.34-.21-.21-.19-.48-.35-1.84-1.08-.3-.16-.58-.34-.62-.4-.05-.06-.33-.16-.62-.22-.3-.06-.54-.19-.54-.27s-.21-.15-.47-.15-.61-.11-.79-.24c-.18-.14-.63-.25-.99-.25-.37,0-.82-.11-1-.23-.4-.27-4.53-.43-7.5-.28M98.13,21.61c-.07.07-.12,8.89-.12,19.6v19.47h10.5v-18.24c0-11.45.06-18.4.16-18.67l.16-.43h3.65c2.92,0,3.75.05,4.13.25.26.14.6.25.75.25s.66.2,1.12.44c1.56.81,2.65,2.22,3.53,4.56.35.94.4,4.74.06,5.48-.86,1.91-.9,1.98-2.01,3.11-.74.75-1.21,1.05-2.83,1.78-.59.26-2.25.49-4.2.58-2.1.09-2.14.13-1.49,1.18.21.34.44.73.51.87.07.14.37.7.69,1.25.31.55.74,1.34.95,1.75s.42.79.47.83c.14.14.5.74.6,1,.05.14.16.36.25.5.08.14.22.41.31.61.09.2.24.41.33.47s.18.26.18.43.06.32.13.32.25.24.38.54c.44.95,1.4,2.71,1.51,2.79.06.05.19.27.29.5.1.23.34.68.53,1,.4.67,1.44,2.56,2.01,3.67.21.41.43.79.48.83.09.08.68,1.17,1.06,1.96l.18.37h7.11s7.11,0,7.11,0l.28-.62c.49-1.1.57-1.28.68-1.67.06-.21.17-.38.26-.38s.16-.18.16-.4.11-.49.25-.6c.14-.11.25-.32.25-.45s.12-.48.27-.77c.64-1.22.73-1.42.73-1.68,0-.15.07-.27.17-.27s.17-.12.17-.27.1-.47.23-.71c.12-.24.36-.74.52-1.11.16-.37.4-.87.52-1.11.13-.24.23-.54.24-.67,0-.12.15-.39.32-.6l.31-.38h16.17l.36.79c1.02,2.22,1.33,2.98,1.33,3.28,0,.15.07.27.17.27s.17.12.17.27.1.47.22.71c.12.24.35.69.5,1,.15.31.28.69.28.85s.11.39.25.51c.14.11.25.34.25.51s.11.51.24.77c.44.87,1.09,2.4,1.09,2.56,0,.1,2.13.16,5.75.16,3.16,0,5.75-.04,5.75-.1s-.11-.3-.24-.54c-.13-.24-.36-.74-.51-1.11-.55-1.33-.62-1.51-.85-2.04-.13-.3-.35-.8-.49-1.12-.39-.9-.7-1.61-.99-2.34-.41-1-.51-1.24-1.07-2.46-.28-.62-.51-1.19-.51-1.28s-.11-.37-.24-.62c-.13-.26-.31-.66-.4-.89-.61-1.49-.74-1.81-.97-2.33-.14-.32-.32-.7-.4-.83-.08-.14-.19-.36-.25-.5-.05-.14-.21-.55-.35-.92s-.43-1.03-.65-1.47c-.22-.44-.4-.88-.4-.98,0-.18-.44-1.24-.68-1.63-.08-.14-.2-.36-.25-.5-.48-1.24-.67-1.71-1.02-2.5-.23-.5-.52-1.18-.66-1.5-.14-.32-.35-.8-.48-1.06-.13-.26-.24-.61-.24-.77s-.11-.39-.25-.51c-.14-.11-.25-.38-.25-.58s-.11-.47-.25-.58c-.14-.11-.25-.31-.25-.44s-.07-.36-.16-.52c-.09-.16-.28-.59-.43-.96-.36-.89-.56-1.34-1.48-3.46-.21-.49-.35-.8-.96-2.29-.09-.23-.28-.63-.41-.89-.13-.26-.24-.57-.24-.68,0-.69-.44-.76-4.6-.76h-3.99s-.31.71-.31.71c-.17.39-.41.93-.53,1.21-.12.28-.33.77-.48,1.11-.14.33-.26.69-.26.79s-.08.18-.17.18-.17.12-.17.27-.1.47-.22.71c-.12.24-.35.69-.5,1-.15.31-.28.62-.28.71s-.23.66-.51,1.28c-.28.62-.59,1.31-.68,1.54-.49,1.2-1.36,3.23-1.85,4.33-.14.32-.38.88-.53,1.25-.15.37-.35.85-.45,1.08-.38.88-.68,1.6-.89,2.08-.12.28-.33.77-.48,1.11-.15.33-.27.69-.27.79s-.07.18-.15.18-.2.26-.26.58-.18.58-.27.58-.16.13-.16.3-.11.45-.24.62c-.14.18-.25.47-.26.66,0,.18-.12.48-.25.66-.14.18-.25.45-.25.6s-.11.38-.25.49c-.14.11-.25.39-.25.6s-.07.4-.17.4-.17.12-.17.27-.1.47-.23.71c-.21.42-.49,1.03-1.04,2.32-.13.3-.34.78-.47,1.08-.13.3-.36.84-.51,1.21-.15.37-.34.8-.43.96-.09.16-.16.39-.16.52s-.11.33-.25.44c-.14.11-.25.38-.25.59s-.11.5-.25.63c-.14.14-.25.36-.25.5s-.11.46-.24.72c-.33.65-.73,1.58-.84,1.94-.12.4-.75.31-.99-.14-.1-.18-.22-.37-.27-.42-.12-.12-.47-.68-.67-1.08-.09-.18-.32-.56-.5-.83s-.38-.61-.45-.75c-.06-.14-.21-.35-.33-.47-.12-.12-.22-.33-.22-.46s-.08-.24-.17-.24-.17-.1-.17-.22-.21-.52-.46-.88c-.61-.88-.8-1.18-1.23-2.02-.2-.39-.43-.71-.51-.71s-.14-.09-.14-.21c0-.11-.32-.7-.71-1.29-.39-.6-.86-1.37-1.04-1.71-.18-.34-.39-.62-.46-.62s-.13-.11-.13-.24-.09-.34-.21-.47c-.11-.12-.34-.47-.5-.76-.16-.29-.42-.77-.58-1.07-.16-.29-.38-.64-.5-.76-.12-.12-.21-.33-.21-.47s-.06-.24-.13-.24-.27-.28-.45-.62c-.18-.34-.43-.75-.55-.9-.27-.33.14-.64.86-.64.23,0,.46-.08.52-.17.06-.09.3-.17.55-.17.25,0,.66-.11.93-.25s.61-.25.77-.25.39-.11.5-.25c.11-.14.31-.25.43-.25.86,0,4.57-4.52,4.57-5.58,0-.2.11-.51.24-.68.34-.45.35-3.05.01-3.5-.13-.18-.25-.48-.25-.67,0-.19-.19-.68-.42-1.08s-.46-.85-.53-.99c-.15-.33-2.43-2.66-2.61-2.66-.07,0-.38-.18-.67-.4-.29-.22-.9-.56-1.36-.76-.46-.2-.96-.43-1.12-.52-.16-.09-.43-.16-.59-.16s-.45-.11-.63-.24c-.18-.14-.62-.25-.99-.25-.37,0-.89-.13-1.17-.28-.54-.3-22.51-.58-22.79-.29M178.04,21.72c-.15.15-.2,4.73-.2,19.58v19.38h3.67v-14.13c0-12.17.03-14.18.24-14.46.14-.18.25-.24.25-.13,0,.11.14.24.3.29.16.05.44.34.61.64.17.3.36.58.42.63.06.05.81,1.02,1.67,2.17.86,1.15,1.74,2.27,1.95,2.5.21.23.43.55.48.71.05.16.16.29.25.29s.15.11.15.25.06.25.13.25.5.51.95,1.12c.45.62,1.03,1.39,1.29,1.71.65.81.56.68,2.48,3.24.95,1.26,1.95,2.61,2.21,2.99s.57.76.69.85.53.62.92,1.17c.39.55.91,1.23,1.15,1.51.24.28.54.69.68.9.14.21.33.46.43.57.1.1,1.07,1.39,2.16,2.86,1.09,1.47,2.15,2.85,2.36,3.08.21.23.43.55.48.71.08.26.36.29,2.58.29h2.49l-.04-19.54-.04-19.54h-3.67l-.04,10.21c-.04,8.92-.07,10.21-.29,10.21-.32,0-1.12-.83-1.78-1.85-.15-.24-.38-.54-.5-.67-.51-.53-1.3-1.62-1.3-1.8,0-.1-.06-.18-.13-.18s-.43-.39-.79-.88c-.36-.48-.71-.9-.78-.93-.07-.03-.12-.13-.12-.22s-.23-.4-.5-.69c-.28-.29-.5-.62-.5-.73,0-.11-.06-.22-.14-.25-.08-.03-.82-.97-1.66-2.09-.83-1.12-1.71-2.24-1.94-2.5-.24-.25-.43-.54-.43-.63,0-.09-.24-.43-.52-.75-.29-.32-.82-1-1.2-1.5-.37-.5-.74-.99-.81-1.08-.07-.09-.62-.81-1.23-1.58s-1.24-1.58-1.42-1.79c-.38-.44-10.52-.61-10.95-.17M212.28,21.63c-.06.06-.11.88-.11,1.83v1.72l4.62.04,4.62.04.04,17.71.04,17.71h10.66v-17.47c0-16.72.01-17.49.31-17.75.27-.24.85-.28,4.83-.28h4.53v-3.67h-14.72c-8.1,0-14.77.05-14.83.11M245.01,41.1v19.58h28.84l-.05-1.96-.05-1.96-8.92-.08-8.92-.08-.05-6.67c-.03-3.67,0-6.83.04-7.04l.09-.37,7.87-.04,7.87-.04.05-1.96.05-1.96h-7.9c-7.05,0-7.91-.03-8-.26-.18-.47-.11-12.4.07-12.75.17-.31.44-.32,8.76-.32h8.58l-.05-1.79-.05-1.79-14.12-.04-14.12-.04v19.58M341.38,24.98c.11.11.38.2.59.2,1.32,0,4.69,2.79,5.71,4.73.23.44.58,1.11.79,1.49.21.38.37.83.38.99,0,.16.06.29.13.29.11,0,.26.46.88,2.67.65,2.36.66,9.22,0,11.67-.77,2.87-1.28,4.08-2.55,6-1.2,1.82-3.14,3.67-3.84,3.67-.13,0-.33.11-.44.25-.11.14-.4.25-.65.26-.24,0-.62.11-.85.24-.6.34-3.98.35-4.43,0-.18-.13-.48-.25-.66-.25-.85-.01-4.24-2.49-4.24-3.1,0-.05-.15-.24-.33-.44-.44-.47-1.5-2.26-1.5-2.54,0-.12-.11-.31-.25-.42-.14-.11-.25-.37-.26-.56s-.12-.5-.25-.68c-.14-.18-.24-.49-.24-.7s-.07-.42-.16-.47c-.09-.05-.2-.45-.26-.89-.06-.43-.16-.9-.24-1.04-.08-.14-.19-1.04-.26-2-.07-.96-.2-1.83-.29-1.95-.09-.12-.12-.52-.06-.92.06-.39.2-1.69.32-2.88.12-1.19.26-2.28.31-2.42.06-.14.15-.6.21-1.04.06-.43.18-.83.26-.89.09-.05.16-.29.16-.52s.1-.62.22-.86c.12-.24.35-.69.5-1,.15-.31.28-.66.28-.79s.08-.24.17-.24.17-.09.17-.2c0-1.25,4.62-5.46,6-5.47.14,0,.55-.12.92-.25.79-.3,3.47-.26,3.79.06M1.67,30.64c0,.25-.11.65-.24.88-.13.23-.24.69-.24,1.02,0,.33-.12.88-.26,1.22-.14.34-.24.86-.21,1.15l.05.52,17.5.05c19.92.05,18.25.14,18.25-.97,0-.46.11-1.1.25-1.43.14-.33.25-.81.25-1.06s.11-.67.25-.94c.14-.26.25-.57.25-.69,0-.17-3.69-.21-17.92-.21H1.67v.46M150.75,31.41c.32.67.59,1.31.59,1.4s.13.43.28.73c.15.31.38.75.5,1,.12.24.22.56.22.71s.07.27.17.27.17.12.17.27.1.47.22.71c.12.24.35.69.5,1,.15.31.28.69.28.85s.11.39.25.51c.14.11.25.34.25.51s.11.51.24.77c.68,1.36,1.1,2.27,1.1,2.41,0,.09.14.47.31.86.79,1.77,1.31,1.64-6.15,1.58l-5.92-.05-.06-.41c-.03-.23.05-.64.18-.92.27-.56.48-1.03.87-2,.15-.37.38-.88.51-1.14.13-.26.24-.57.24-.69s.11-.31.25-.42c.14-.11.25-.32.25-.47s.23-.75.51-1.35.59-1.28.68-1.51c.5-1.22.8-1.9,1.62-3.68.28-.6.51-1.16.51-1.24,0-.13.66-.92.77-.92.03,0,.31.55.64,1.23M.21,42.64l.05,2.62h35.33l.05-2.62.05-2.62H.17l.05,2.62M.78,49.79c-.21.21-.11,1.9.14,2.5.14.33.25.88.25,1.22s.12.86.26,1.15l.26.53,17.61-.04,17.61-.04.05-.7c.03-.4-.06-.91-.21-1.2-.14-.28-.26-.81-.26-1.19s-.12-1.06-.27-1.51l-.27-.82h-17.54c-9.64,0-17.59.05-17.65.11M3.08,59.7c-.1.16,0,.46.7,1.87.13.26.23.62.23.79s.06.32.14.32.31.39.52.88c.21.48.5,1.01.64,1.17.26.29,35.46.49,35.74.2.1-.1-.88-2.13-1.08-2.21-.07-.03-.12-.17-.12-.31s-.1-.45-.22-.69c-.12-.24-.35-.69-.5-1-.15-.31-.28-.7-.28-.88,0-.38-35.52-.52-35.76-.14M8.18,69.47c0,.19,2.65,3.46,3.77,4.65l.52.56h36.51l-1.61-1.64c-.88-.9-1.91-2-2.27-2.45-.37-.44-.77-.91-.89-1.03-.24-.25-36.03-.34-36.02-.1"/>
  <path id="path2" class="cls-2" d="M34.01.29c-5.6.94-9.88,2.5-14.39,5.23-.26.16-.58.45-.72.64l-.25.35h19.05c19.82,0,19.87,0,20.72-.66.09-.07.32-.17.5-.23,1.32-.39,2.61-.94,2.23-.94-.24,0-.65.1-.92.24-.26.14-.6.25-.76.25-.15,0-.33.08-.39.17s-.24.17-.42.17-.44.13-.6.29c-.29.29-37.81.57-38.54.3-.25-.1,1.34-1.25,1.73-1.25.12,0,.27-.07.32-.16.13-.21,3.12-1.67,3.43-1.68.13,0,.38-.12.56-.25.18-.13.48-.25.67-.25.19,0,.49-.12.67-.25.18-.13.49-.24.69-.24s.58-.11.84-.25.68-.25.93-.25c.25,0,.49-.07.54-.15s.48-.2.96-.26.95-.18,1.04-.25c.09-.07.84-.18,1.66-.23.82-.06,1.56-.18,1.66-.27.23-.23,311.8-.24,312.04,0,.09.09.84.24,1.66.32,1.66.18,3.18.47,3.62.7.16.08.46.15.67.15.21,0,.59.11.85.25.26.14.6.25.75.25.15,0,.49.11.75.25.26.14.6.25.75.25.15,0,.42.11.6.25.18.14.5.24.71.24s.38.07.38.17.09.17.19.17c.28,0,2.61,1.14,2.73,1.34.06.09.24.16.41.16s.33.06.36.13c.03.07.54.42,1.14.78.6.36,1.12.69,1.17.74.05.05.31.24.58.41,1.82,1.14,5.8,4.77,7.33,6.68.37.46.71.87.77.92.08.07,2.3,3.08,2.78,3.76.07.1.27.43.44.75.18.32.57,1.02.88,1.57.31.55.64,1.21.74,1.46.1.25.25.46.33.46s.15.14.15.31.11.41.25.52c.14.11.25.34.25.51s.11.51.24.77c.43.85.76,1.68.76,1.93,0,.13.05.29.11.35.15.15.71,1.81.72,2.12,0,.14.12.46.26.73s.25.68.25.94.11.68.25.94c.14.26.25.74.25,1.06,0,.7.48,2.16.49,1.51,0-.22-.06-.64-.15-.92-.08-.28-.28-1.11-.45-1.85-.33-1.5-1.4-4.89-1.91-6.06-.19-.42-.4-.92-.47-1.1-.13-.33-1.11-2.31-1.86-3.75-2.82-5.45-10.55-13.47-14.83-15.39-.14-.06-.62-.33-1.08-.61-1.46-.87-3.59-1.82-5.5-2.46-2.62-.88-4.39-1.32-7.26-1.78-2.32-.38-312.08-.36-314.32.02M66.92,3.38c-.37.09-1.17.21-1.78.27-.62.06-1.22.22-1.33.35-.18.19-.16.21.12.11.45-.16.78-.21,3.5-.52,3.16-.36,273.8-.3,275.92.06,2.17.37,4.84.99,5.75,1.35.18.07.97.38,1.75.68,2.05.8,4.53,2.04,5.18,2.6.15.13.32.23.38.23.63,0,6.05,4.72,7.96,6.92,1.59,1.84,5.32,7.45,5.32,8.01,0,.03.3.69.67,1.47s.67,1.47.67,1.53.11.35.24.63c.5,1.11,1.47,4.33,1.79,5.94.38,1.9.68,3.69.8,4.83l.13,1.25-.05-1.5c-.05-1.38-.38-3.65-.62-4.25-.06-.14-.15-.6-.21-1.04-.06-.43-.18-.83-.26-.89-.09-.05-.16-.32-.16-.6s-.09-.66-.19-.86c-.11-.2-.25-.59-.32-.86-.2-.81-.55-1.76-1.15-3.12-.19-.43-.34-.86-.34-.96s-.08-.18-.17-.18-.17-.18-.17-.4-.11-.49-.25-.6-.25-.31-.25-.44-.2-.55-.45-.94c-.41-.64-.8-1.31-1.28-2.21-.33-.61-2.12-3.22-2.49-3.62-.2-.22-.66-.77-1.02-1.22-1.08-1.34-2.59-2.87-3.83-3.88-.64-.52-1.25-1.03-1.34-1.13-.32-.35-3.06-2.27-3.67-2.56-.18-.09-.71-.39-1.17-.66-.46-.28-.95-.55-1.08-.6-.14-.05-.36-.17-.5-.25-.14-.09-.36-.2-.5-.26-.14-.06-.49-.2-.78-.33-.29-.13-.6-.23-.69-.23s-.38-.11-.64-.25c-.26-.14-.6-.25-.76-.25-.16,0-.33-.08-.39-.17-.06-.09-.27-.17-.47-.17-.2,0-.58-.11-.84-.25s-.68-.25-.94-.25-.73-.11-1.06-.25c-.33-.14-1-.25-1.49-.25s-.98-.09-1.1-.21c-.26-.26-275.35-.36-276.44-.09M61.92,4.46c-.32.26-.32.26.08.15.23-.06.68-.18,1-.25l.58-.13h-.67c-.38-.02-.81.09-1,.24M12.03,11.7c-1.62,1.63-3.44,3.9-3.44,4.29,0,.26,1.34.28,18.14.28h18.14l.5-.58c.66-.77,3.64-3.79,4.29-4.36.28-.24.51-.52.51-.62,0-.13-5.16-.18-18.15-.18-9.98,0-18.26-.04-18.39-.09-.15-.06-.74.41-1.6,1.28M49.61,10.9s-1.08,1.18-2.44,2.58l-2.49,2.54h-17.66c-9.71,0-17.77-.05-17.92-.1-.33-.12-.13-.53.66-1.39.3-.33.72-.82.93-1.09.21-.27.87-.99,1.47-1.58l1.09-1.08,18.15.04c9.99.02,18.17.06,18.2.09M5.55,20.39c-.32.4-2.21,4.44-2.31,4.95l-.1.51h18.06s18.06-.02,18.06-.02l1.35-2.74c.74-1.5,1.31-2.78,1.26-2.82-.21-.21-36.16-.09-36.33.12M41.67,20.58c0,.13-.09.31-.21.41s-.7,1.19-1.29,2.43l-1.08,2.26h-17.79s-17.79,0-17.79,0v-.46c0-.25.12-.6.26-.78.14-.18.24-.45.24-.6s.11-.38.25-.49c.14-.11.25-.34.25-.51s.06-.32.12-.35c.16-.07.71-1.11.71-1.35,0-.1.12-.32.28-.49.37-.41,36.06-.49,36.06-.08M337.88,20.64c.53.03,1.39.03,1.92,0,.53-.03.1-.06-.96-.06s-1.48.03-.96.06M334.34,20.94c-1.76.34-3.61.91-4.45,1.38-.2.11-.44.2-.54.2s-.76.35-1.47.78c-6.04,3.63-9.65,9.46-9.95,16.05-.07,1.56,0,1.19.36-2,.08-.69.23-1.41.35-1.61.11-.2.2-.52.2-.7s.11-.58.24-.89c.13-.3.36-.85.51-1.21.38-.92.82-1.82.93-1.92.05-.05.15-.2.22-.33.93-1.95,4.77-5.96,6.44-6.72.14-.06.62-.34,1.08-.62.46-.28.95-.54,1.08-.59.37-.13,1.35-.56,1.89-.83.26-.13.66-.24.89-.24s.66-.11.95-.24c.29-.13.94-.28,1.44-.32.5-.04,1.25-.15,1.67-.24l.75-.16h-.75c-.41,0-1.24.1-1.83.21M341.51,20.88c.41.09,1.24.21,1.83.28.6.07,1.25.21,1.45.32.2.11.61.21.92.21.3,0,.74.11.97.24.23.13.58.24.78.24.2,0,.57.11.83.24.26.13.96.47,1.55.76,1.47.72,2.75,1.5,3.65,2.25.83.69,3.02,2.99,3.02,3.17,0,.1.21.41.46.68.25.27.61.77.79,1.12.18.34.38.62.45.62s.13.14.13.32.11.43.25.57c.14.14.25.35.26.47,0,.12.12.37.25.54.14.18.24.49.24.69s.13.47.28.59c.25.2.27.19.15-.1-.07-.18-.21-.56-.31-.83-.72-2.03-2.91-5.2-4.89-7.08-2.92-2.78-6.4-4.39-11.31-5.26-1.57-.28-3.07-.32-1.76-.05M68.58,21.01c-.92.07-1.83.21-2.03.32s-.53.19-.75.19c-2.9,0-9.41,4.4-11.7,7.9-5.23,8-4.67,18.29,1.37,25.06,3.27,3.67,7.73,5.86,13.46,6.61,3.1.41,6.28.24,9.92-.51,2.31-.48,4.82-1.18,5.07-1.41.09-.08.26-.15.38-.15.41,0,4.97-2.18,5.61-2.68l.44-.35v-7.97c0-6.52-.04-8-.23-8.16-.16-.14-2.67-.18-9.04-.15l-8.81.04v4l4.65.04c3.09.03,4.73.11,4.88.23.39.32.32,10.51-.07,10.86-1.73,1.57-7.26,2.53-10.29,1.79-3.54-.86-7.19-4.63-8-8.27-.06-.27-.21-.83-.33-1.24-1.48-5.12-.38-15.33,1.86-17.19.12-.1.22-.27.22-.37,0-.78,3.26-3.43,4.92-3.98,3.77-1.27,10.19.25,13.08,3.08.73.71.87.68,2.35-.54.76-.63,1.46-1.27,1.54-1.43.3-.54-2.74-3.08-4.72-3.93-1.78-.77-3.36-1.3-3.88-1.3-.22,0-.76-.11-1.21-.24-1-.29-6.27-.45-8.67-.27M296.09,21.01c-.83.05.52.1,3,.1,2.98,0,3.93-.04,2.83-.11-1.94-.13-3.73-.12-5.83.01M77.04,21.46c.25.12.83.23,1.29.23s.84.07.84.16.28.21.62.26c.34.06.85.2,1.12.32.45.2.85.36,1.58.66.14.06.47.25.75.43.28.18.63.38.79.44.16.06.29.16.29.24s.14.18.3.23c.42.13,2.2,1.88,2.2,2.16,0,.12-.31.48-.69.79-.38.31-.92.77-1.21,1.02-.83.74-1.01.73-1.97-.11-.48-.42-.96-.76-1.08-.76s-.21-.07-.21-.16-.17-.21-.38-.27c-.21-.07-.65-.3-1-.51-.34-.22-.76-.39-.93-.39s-.45-.11-.63-.24c-.18-.14-.52-.25-.75-.25-.24,0-.57-.12-.75-.25-.18-.14-.69-.25-1.19-.25-.48,0-.91-.08-.97-.17-.06-.09-.8-.17-1.67-.17s-1.61.08-1.67.17c-.06.09-.36.17-.67.17-.51,0-1.42.3-2.08.69-.14.08-.36.2-.5.26-.39.17-1.53,1.07-2.08,1.64-.91.94-2.25,2.8-2.25,3.13,0,.12-.09.31-.19.41-.21.22-.62,1.22-.75,1.87-.05.23-.19.65-.32.94-.13.29-.24.85-.24,1.26s-.09.83-.21.94c-.16.16-.21,1.3-.21,4.56s.05,4.37.21,4.42c.12.04.21.37.21.81,0,.41.11,1.01.25,1.34.14.33.25.75.25.93s.11.53.24.77c.13.24.49.99.79,1.65.31.67.61,1.21.68,1.21s.12.09.12.19c0,.63,3.59,3.97,4.26,3.97.06,0,.34.1.63.23,2.19.94,6.88.94,9.05,0,.29-.12.6-.23.68-.23.25,0,2.28-1.04,2.42-1.24.2-.29.15-10.74-.04-11.11-.17-.31-.4-.32-4.92-.32h-4.74v-3.67l8.79.04,8.79.04.04,7.98c.05,8.79.12,8.21-1.1,8.81-.43.21-.8.43-.83.5-.03.07-.13.12-.22.12-.17,0-1.51.56-2.02.84-.16.09-.39.16-.52.16s-.33.11-.44.25c-.11.14-.37.25-.56.25-.2,0-.5.12-.68.25-.18.14-.53.25-.78.25s-.5.07-.56.16c-.05.09-.45.21-.88.27-.43.06-.86.17-.96.24-.09.07-.57.17-1.06.22-.49.06-.98.17-1.08.25-.11.08-1.05.2-2.1.25-1.05.06-1.98.18-2.08.27-.22.22-3.65.22-3.87,0-.09-.09-.97-.21-1.95-.28-.98-.06-1.78-.17-1.78-.24s-.36-.18-.79-.23-.92-.17-1.08-.26c-.16-.09-.37-.16-.47-.16-.17,0-.58-.16-1.9-.75-.28-.12-.61-.27-.75-.32-.14-.05-.36-.17-.5-.25-.14-.09-.36-.2-.5-.25-.27-.1-.86-.46-1-.6-.05-.05-.41-.3-.81-.56-1.04-.67-3.83-3.52-4.61-4.69-.37-.55-.71-1.04-.77-1.08-.06-.05-.15-.25-.22-.46-.06-.21-.19-.38-.27-.38s-.16-.14-.16-.31-.11-.41-.25-.52c-.14-.11-.25-.37-.26-.56,0-.19-.11-.5-.25-.68-.13-.18-.24-.49-.24-.69s-.11-.58-.25-.84c-.14-.26-.25-.75-.25-1.09,0-.34-.06-.65-.14-.7-.54-.33-.11-8.58.47-9.16.09-.09.17-.4.17-.69s.11-.66.24-.84c.14-.18.25-.48.25-.67,0-.19.12-.49.25-.67.14-.18.25-.48.25-.68,0-.19.12-.45.26-.56.14-.11.25-.35.25-.52s.06-.31.13-.31.27-.28.45-.62c.86-1.66,2.93-3.91,4.86-5.31,1.94-1.4,2.2-1.57,2.45-1.57.13,0,.33-.11.44-.25.11-.14.35-.25.52-.25s.31-.08.31-.17.13-.17.29-.17c.16,0,.51-.11.77-.25.26-.14.6-.25.75-.25.15,0,.49-.11.75-.25.26-.14.74-.25,1.05-.25s.74-.09.94-.2c.84-.47,9.22-.49,10.15-.02M97.92,21.39c-.04.11-.06,9.02-.04,19.79l.04,19.58h10.83l.08-18.58.08-18.58,3.17-.05c7.07-.11,9.83,2.09,10.04,8,.19,5.22-3.07,7.95-9.49,7.96h-1.95s.19.55.19.55c.1.3.35.8.55,1.12s.61,1.03.91,1.58c1.73,3.15,2.73,4.95,2.92,5.28.09.16.42.76.73,1.33.58,1.08,1.85,3.37,2.52,4.55.21.37.6,1.08.88,1.58.27.5.81,1.48,1.19,2.17.38.69.84,1.53,1.01,1.86.74,1.43-.05,1.3,7.88,1.32,3.87,0,7.12-.04,7.22-.1.19-.12.52-.81,2.07-4.33.24-.55.51-1.15.59-1.33.08-.18.31-.71.51-1.17.2-.46.61-1.36.9-2,.3-.64.6-1.36.67-1.58.07-.23.24-.58.38-.79l.24-.38h15.96l.35.79c.19.44.45,1.02.57,1.29.12.28.58,1.36,1.01,2.42.43,1.05.84,2.03.91,2.17.07.14.57,1.3,1.1,2.58l.97,2.33,5.79.04c6.35.05,6.25.06,5.74-.91-.13-.26-.32-.65-.42-.88-.1-.23-.34-.79-.53-1.25-.2-.46-.47-1.1-.6-1.42-.14-.32-.33-.77-.42-1s-.28-.66-.41-.96c-.13-.3-.34-.79-.46-1.08-.13-.3-.31-.73-.41-.96s-.36-.83-.58-1.33c-.22-.5-1.66-3.88-3.2-7.5-2.55-6.01-3.14-7.37-3.84-8.94-.13-.29-.24-.57-.24-.64,0-.12-.72-1.76-1.09-2.48-.13-.26-.24-.53-.24-.61s-.23-.65-.51-1.28c-.49-1.08-.79-1.77-1.18-2.72-.09-.23-.28-.66-.4-.96-.13-.3-.34-.79-.46-1.08-.13-.3-.31-.73-.41-.96-1.24-2.95-.66-2.67-5.43-2.67-3.82,0-4.03.02-4.22.33-.36.57-3.71,8.55-3.63,8.63.08.08.92-1.72.92-1.97,0-.07.13-.38.28-.69.15-.31.38-.76.5-1,.12-.24.22-.56.22-.71s.08-.27.17-.27.17-.08.17-.18.12-.46.26-.79c.14-.34.36-.83.48-1.11.12-.28.36-.82.53-1.21l.31-.71h4.02c4.2,0,4.57.06,4.57.79,0,.1.11.39.24.65.13.26.36.77.51,1.14.51,1.25.81,1.95,1.34,3.16.42.96.71,1.63.99,2.34.15.37.34.8.43.96.09.16.16.39.16.52s.11.33.25.44c.14.11.25.38.25.58s.11.47.25.58c.14.11.25.34.25.51s.11.51.24.77c.13.26.35.74.48,1.06.14.32.43,1,.66,1.5.23.5.54,1.25.7,1.67.16.41.36.86.44,1,.08.14.2.36.25.5.06.14.2.49.33.78.13.29.23.6.23.69s.18.53.4.98c.22.44.53,1.15.68,1.56.16.41.36.86.44,1,.08.14.2.36.25.5.05.14.2.47.32.75.2.45.33.76.94,2.25.09.23.28.63.4.89.13.26.24.54.24.62s.23.66.52,1.28c.47,1.03.69,1.52,1.18,2.71.53,1.28.61,1.46,1.38,3.21.13.3.36.84.51,1.21.49,1.2.62,1.49.85,1.94.13.24.23.49.23.54s-2.59.1-5.75.1c-3.62,0-5.75-.06-5.75-.16,0-.16-.65-1.69-1.09-2.56-.13-.26-.24-.61-.24-.77s-.11-.39-.25-.51c-.14-.11-.25-.34-.25-.51s-.12-.55-.28-.85c-.15-.31-.38-.75-.5-1-.12-.24-.22-.56-.22-.71s-.07-.27-.17-.27-.17-.12-.17-.27c0-.29-.31-1.06-1.33-3.28l-.36-.79h-16.17l-.31.38c-.17.21-.32.48-.32.6,0,.12-.11.42-.24.67-.13.24-.36.74-.52,1.11-.16.37-.4.87-.52,1.11-.12.24-.23.56-.23.71s-.07.27-.17.27-.17.12-.17.27-.11.48-.25.75c-.14.27-.36.7-.5.97-.14.27-.25.6-.25.73s-.11.34-.25.45c-.14.11-.25.39-.25.6s-.07.4-.16.4-.2.17-.26.38c-.11.4-.48,1.29-.79,1.92l-.18.38h-7.1s-7.1,0-7.1,0l-.18-.37c-.38-.79-.97-1.88-1.06-1.96-.05-.05-.26-.42-.48-.83-.57-1.11-1.6-3-2.01-3.67-.19-.32-.43-.77-.53-1-.1-.23-.23-.45-.29-.5-.12-.09-1.07-1.84-1.51-2.79-.14-.3-.31-.54-.38-.54s-.13-.15-.13-.32-.08-.37-.18-.43-.25-.27-.33-.47c-.09-.2-.23-.49-.32-.65-.09-.16-.24-.42-.33-.58-.09-.16-.22-.4-.28-.54-.06-.14-.15-.29-.21-.33-.05-.05-.27-.42-.48-.83s-.64-1.2-.95-1.75c-.31-.55-.62-1.11-.69-1.25-.07-.14-.29-.53-.51-.87-.66-1.05-.61-1.09,1.49-1.18,1.95-.09,3.62-.32,4.2-.58,1.62-.73,2.1-1.03,2.83-1.78,1.1-1.12,1.15-1.2,2.01-3.11.33-.74.29-4.54-.06-5.48-.88-2.34-1.97-3.75-3.53-4.56-.47-.24-.97-.44-1.12-.44s-.49-.11-.75-.25c-.38-.2-1.21-.25-4.13-.25h-3.65l-.16.43c-.1.27-.16,7.22-.16,18.67v18.24h-10.5l.04-19.54.04-19.54h11.17c10.09.03,11.21.05,11.67.3.28.15.8.28,1.17.28.37,0,.81.12.99.25.18.13.46.24.63.24s.43.07.59.16c.16.09.66.32,1.12.52.46.2,1.07.54,1.36.76.29.22.59.4.67.4.18,0,2.46,2.34,2.61,2.66.06.14.3.58.53.99s.42.9.42,1.09.09.45.21.56c.12.12.25.86.3,1.74l.1,1.53.03-1.35c.1-4.53-3.7-8.37-9.72-9.83-2.91-.7-23.76-1.16-24.01-.53M177.84,21.35c-.22.14-.26,2.55-.29,19.74l-.04,19.59.38.09c.21.05,1.16.07,2.13.04l1.75-.05.04-14.19c.04-14.09.04-14.19.38-14.1.18.05.33.15.33.22s.1.23.22.35c.12.12,1.98,2.54,4.12,5.37,5.95,7.85,7.03,9.28,7.55,10.01.26.37.53.71.6.76.06.05,1.76,2.26,3.76,4.92,2.01,2.66,3.75,4.93,3.86,5.05.12.12.44.55.72.96l.51.74h2.39c1.32,0,2.51-.05,2.66-.1.4-.15.4-38.9,0-39.3-.38-.38-3.6-.38-3.98,0-.23.23-.26,1.38-.26,10.16,0,5.78-.06,9.93-.15,9.99-.08.05-.44-.3-.79-.78-.35-.48-.77-1.03-.92-1.21-.35-.41-2.1-2.72-5-6.58-1.2-1.6-2.24-2.95-2.3-3-.06-.05-1.12-1.43-2.35-3.08-1.23-1.65-2.28-3.04-2.33-3.08-.05-.05-.49-.61-.97-1.25-.48-.64-1-1.22-1.16-1.28-.44-.18-10.58-.15-10.86.03M212,21.61c-.28.73-.21,3.34.1,3.65.23.23.89.26,4.75.26h4.49l.04,17.62.04,17.62h11l.09-17.58c.05-9.67.1-17.6.12-17.62.02-.02,2.12-.06,4.66-.08l4.62-.04v-4.17l-14.88-.04-14.88-.04-.16.43M244.95,21.29c-.06.06-.11,8.99-.11,19.83v19.72l14.62-.04,14.62-.04v-1.99c0-1.18-.07-2.01-.17-2.04-.11-.04-.15.66-.12,1.94l.05,2h-28.85V21.51l14.12.04,14.12.04.05,1.79.05,1.79h-8.58c-8.32,0-8.59,0-8.76.32-.19.35-.25,12.28-.07,12.75.09.24.95.26,8,.26h7.9l-.05,1.96-.05,1.96-7.82.04c-6.01.03-7.86.09-7.96.25-.17.26-.18,13.74-.01,13.85.07.04.12-3.05.12-6.86v-6.94l7.87-.04,7.87-.04.09-.37c.05-.21.07-1.16.04-2.12l-.05-1.75-7.92-.08-7.92-.08-.05-6c-.03-3.3,0-6.17.04-6.38l.09-.38h8.42c5.49,0,8.54-.06,8.75-.17.29-.15.32-.36.32-1.99s-.03-1.84-.32-1.99c-.36-.19-28.21-.25-28.4-.06M293.09,21.38c-5.21,1.22-9.19,3.71-12.08,7.55-.64.85-1.17,1.6-1.17,1.65s-.17.38-.38.72c-.46.75-1.33,2.8-1.68,3.95-.76,2.5-.79,2.76-.73,5.92l.05,3.08.04-3.25c.03-2.45.1-3.35.28-3.67.13-.23.24-.68.25-1,0-.32.12-.73.26-.91.13-.18.24-.53.24-.79s.07-.47.17-.47.17-.13.17-.3c0-.3.78-1.92,1.47-3.03.2-.32.41-.7.48-.83.06-.14.2-.34.29-.45.19-.22.2-.23,1.09-1.38.65-.83,1.62-1.84,1.78-1.84.05,0,.38-.24.71-.54,1.15-1.01,1.51-1.29,1.66-1.29.08,0,.25-.09.37-.21.27-.26,2.93-1.62,3.17-1.62.09,0,.41-.1.69-.22,1.04-.44,2.25-.78,2.8-.79.31,0,.79-.11,1.06-.24.63-.29.11-.32-1-.06M303.92,21.42c.18.14.63.26,1,.27.37,0,.82.11,1,.25.18.13.53.24.79.24s.47.07.47.15.24.21.54.27c.3.06.58.16.62.22.05.06.33.24.62.4,1.36.73,1.62.89,1.84,1.08.12.12.28.21.34.21.11,0,.82.59,1.74,1.44.6.56.59.6-.31,1.35-.42.35-1.04.87-1.37,1.16-.67.59-.73.58-1.78-.35-.37-.32-.93-.72-1.25-.88-.32-.16-.62-.34-.67-.4-.05-.06-.38-.23-.75-.39-.37-.16-.88-.39-1.14-.52-.26-.13-.63-.24-.83-.25-.2,0-.55-.11-.78-.24s-.8-.24-1.26-.24c-.46,0-.92-.09-1.02-.19-.5-.5-5.44.23-6.41.94-.13.09-.45.28-.73.41-1.43.69-4.58,4.65-4.58,5.74,0,.14-.07.25-.17.25s-.17.17-.17.38c0,.21-.11.59-.25.85-.14.26-.25.75-.26,1.08,0,.33-.11.79-.24,1.02-.3.53-.36,9.36-.07,10.11.1.26.24.85.32,1.3.13.81.33,1.46.78,2.53.12.29.22.61.22.71s.07.18.17.18.17.14.17.32.09.42.21.54c.12.12.29.41.39.64.77,1.73,4.48,4.68,5.87,4.66.34,0,.25-.08-.4-.31-5.07-1.83-7.54-6.65-7.7-15.02-.13-7.13,1.21-11.04,4.83-14.11,3.58-3.03,10.89-2.65,15.22.77,1.74,1.38,1.5,1.35,2.76.33,2.19-1.78,2.2-1.81.86-2.95-2.27-1.94-5.28-3.5-7.62-3.94-.27-.05-.69-.14-.92-.19-.4-.1-.41-.09-.09.16M189,21.89c.17.21.81,1.01,1.42,1.79s1.16,1.49,1.23,1.58c.07.09.44.58.81,1.08.37.5.91,1.18,1.2,1.5.29.32.52.66.52.75,0,.09.2.38.43.63.24.25,1.11,1.38,1.94,2.5.83,1.12,1.58,2.06,1.66,2.09.08.03.14.14.14.25,0,.11.22.43.5.73.27.29.5.61.5.69s.06.19.12.22c.07.03.42.45.78.93.36.48.72.88.79.88s.13.08.13.18c0,.17.8,1.27,1.3,1.8.12.13.35.43.5.67.66,1.02,1.46,1.85,1.78,1.85.22,0,.26-1.29.29-10.21l.04-10.21h3.67l.04,19.54.04,19.54h-2.49c-2.22,0-2.5-.03-2.58-.29-.05-.16-.26-.48-.48-.71-.21-.23-1.27-1.62-2.36-3.08-1.09-1.47-2.06-2.75-2.16-2.86-.1-.1-.29-.36-.43-.57-.14-.21-.44-.61-.68-.9-.24-.28-.75-.97-1.15-1.51-.4-.55-.81-1.08-.92-1.17s-.42-.48-.69-.85-1.26-1.72-2.21-2.99c-1.92-2.56-1.83-2.44-2.48-3.24-.26-.32-.84-1.09-1.29-1.71-.45-.62-.88-1.12-.95-1.12s-.13-.11-.13-.25-.07-.25-.15-.25-.2-.13-.25-.29c-.05-.16-.26-.48-.48-.71-.21-.23-1.09-1.35-1.95-2.5-.86-1.15-1.61-2.12-1.67-2.17-.06-.05-.25-.33-.42-.63-.17-.3-.45-.58-.61-.64-.16-.05-.3-.18-.3-.29,0-.11-.11-.05-.25.13-.21.28-.24,2.29-.24,14.46v14.13h-3.67v-19.38c0-14.85.05-19.43.2-19.58.43-.43,10.58-.27,10.95.17M241.84,23.35v1.83h-4.53c-3.98,0-4.56.03-4.83.28-.29.26-.31,1.03-.31,17.75v17.47h-10.66l-.04-17.71-.04-17.71-4.62-.04-4.62-.04v-1.72c0-.95.05-1.77.11-1.83.06-.06,6.74-.11,14.83-.11h14.72v1.83M337.59,24.93c-.37.14-.78.25-.92.25-1.38.01-6,4.23-6,5.47,0,.11-.08.2-.17.2s-.17.11-.17.24-.13.49-.28.79c-.15.31-.38.75-.5,1-.12.24-.22.63-.22.86s-.07.47-.16.52c-.09.05-.2.45-.26.89-.06.43-.15.9-.21,1.04-.06.14-.2,1.22-.31,2.42-.11,1.19-.26,2.46-.32,2.81-.07.37-.04.79.07,1,.1.2.21.7.25,1.11.04.41.04.13.01-.63-.46-11.47,5.48-19.46,13.1-17.64,4.39,1.05,8,6.47,8.51,12.77l.11,1.42-.04-1.67c-.02-.92-.13-2-.25-2.42s-.33-1.18-.48-1.71c-.15-.53-.33-.96-.4-.96s-.13-.13-.13-.29c0-.16-.17-.61-.38-.99-.2-.38-.56-1.05-.79-1.49-1.02-1.94-4.39-4.73-5.71-4.73-.22,0-.48-.09-.59-.2-.31-.31-2.99-.35-3.79-.06M1.59,30.22c-.38,1.12-.92,3.36-.91,3.75.01.55.49-.83.5-1.44,0-.33.11-.79.24-1.02.13-.23.24-.62.24-.88v-.46h17.92c14.22,0,17.92.04,17.92.21,0,.11-.11.42-.25.69-.14.26-.25.68-.25.94s-.11.73-.25,1.06c-.14.33-.25.98-.25,1.43,0,1.11,1.67,1.02-18.25.97l-17.5-.05-.11-.58-.11-.58.03.67.03.67,17.91.04c14.21.03,17.93,0,18.04-.17.07-.11.13-.42.14-.68,0-.26.23-1.37.5-2.47.28-1.1.46-2.07.41-2.15-.16-.26-35.9-.2-35.99.06M149.7,30.57c-.2.21-.36.45-.36.53s-.23.64-.51,1.24c-.83,1.78-1.13,2.46-1.62,3.68-.09.23-.4.91-.68,1.51s-.51,1.21-.51,1.35-.11.35-.25.47c-.14.11-.25.31-.25.42s-.11.43-.24.69c-.13.26-.36.77-.51,1.14-.4.97-.6,1.44-.87,2-.13.28-.22.69-.18.92l.06.41,5.92.05c7.45.06,6.94.19,6.15-1.58-.17-.38-.31-.77-.31-.86,0-.14-.42-1.06-1.1-2.41-.13-.26-.24-.61-.24-.77s-.11-.39-.25-.51c-.14-.11-.25-.34-.25-.51s-.12-.55-.28-.85c-.15-.31-.38-.76-.5-1-.12-.24-.22-.56-.22-.71s-.07-.27-.17-.27-.17-.12-.17-.27-.1-.47-.22-.71c-.12-.24-.35-.69-.5-1-.15-.31-.28-.63-.28-.73,0-.18-1.14-2.63-1.23-2.63-.03,0-.21.17-.41.39M145.35,30.81c-.12.25-.31.68-.42.96-.12.28-.29.69-.39.92-.1.23-.34.79-.53,1.25-.41.97-.48,1.13-1.16,2.64-.28.62-.51,1.2-.51,1.28s-.11.35-.24.61c-.13.26-.31.66-.41.89s-.35.83-.58,1.33-.69,1.59-1.03,2.42c-.34.83-.84,1.97-1.1,2.54-.26.57-.48,1.08-.48,1.13s-.18.48-.39.96c-.22.48-.56,1.28-.77,1.78-.21.5-.56,1.33-.79,1.83s-.52,1.18-.66,1.5c-.14.32-.33.77-.43,1-.53,1.24-.66,1.54-.87,2.04-.49,1.18-.59,1.4-.92,2.16-.19.43-.34.85-.34.94,0,1.11-2.86-3.13-7.23-10.72-.1-.18-.47-.77-.82-1.3-.34-.54-.62-1.01-.62-1.05s-.6-1.06-1.33-2.26c-1.39-2.29-1.44-2.47-.68-2.47,3.33,0,8.9-4.99,8.84-7.92,0-.34-.49.49-.49.84,0,1.05-3.71,5.58-4.57,5.58-.12,0-.32.11-.43.25-.11.14-.34.25-.5.25s-.51.11-.77.25-.68.25-.93.25c-.25,0-.49.08-.55.17-.06.09-.29.17-.52.17-.72,0-1.13.31-.86.64.13.15.38.56.55.9.18.34.38.62.45.62s.13.11.13.24.09.34.21.47c.12.13.34.47.5.76.16.29.42.78.58,1.07.16.29.39.64.5.76.12.13.21.33.21.47s.06.24.13.24.28.28.46.62c.18.34.65,1.11,1.04,1.71.39.6.71,1.18.71,1.29,0,.12.06.21.14.21s.3.32.51.71c.43.83.62,1.13,1.23,2.02.25.36.46.76.46.88s.08.22.17.22.17.11.17.24.09.34.21.47c.24.27.56.74.79,1.21.09.18.32.56.5.83.18.28.38.61.44.75.06.14.16.29.21.33.05.05.18.23.28.42.25.45.87.53.99.14.11-.36.51-1.29.84-1.94.13-.26.24-.58.24-.72s.11-.36.25-.5c.14-.14.25-.42.25-.63s.11-.48.25-.59c.14-.11.25-.31.25-.44s.07-.36.16-.52c.09-.16.28-.59.43-.96.15-.37.38-.91.51-1.21.13-.3.34-.78.47-1.08.56-1.29.83-1.9,1.04-2.32.12-.24.23-.56.23-.71s.07-.27.17-.27.17-.18.17-.4.11-.49.25-.6c.14-.11.25-.33.25-.49s.11-.43.25-.6c.13-.18.25-.47.25-.66,0-.18.12-.48.26-.66.13-.18.24-.46.24-.62s.07-.3.16-.3.21-.26.27-.58.18-.58.26-.58.15-.08.15-.18.12-.46.27-.79c.32-.72.65-1.48.96-2.23.12-.3.31-.73.41-.96.1-.23.3-.72.45-1.08.15-.37.38-.91.51-1.21.6-1.37.76-1.74,1-2.29.14-.32.35-.83.48-1.13.12-.3.32-.75.44-1s.18-.49.13-.54-.18.12-.3.38M152.5,36.02c1.26,2.98,2.46,5.76,2.65,6.19.2.43.36.85.36.93s.12.39.26.68c.52,1.03.54,1.03-5.99.98-6.72-.05-6.26.1-5.43-1.72.9-1.98.96-2.14,1.58-3.57.87-2.03,1.06-2.47,1.6-3.62.27-.57.48-1.14.48-1.26s.07-.29.15-.38c.08-.09.43-.83.76-1.64.69-1.68.94-2.12,1.14-2.05.08.03,1.17,2.48,2.43,5.46M359.86,34.96c0,.29.05.57.14.62.08.05.2.56.27,1.13s.19,1.13.27,1.23c.27.33.07,6.14-.26,7.56-.4,1.75-.52,2.69-.2,1.67,1.05-3.47,1.04-9.06-.03-12.25l-.17-.5v.53M381.94,35.68c.54,7.53.34,15.39-.42,16.82-.1.18-.18.61-.18.96,0,.35-.11.82-.24,1.05-.13.23-.24.65-.24.94,0,.29-.12.74-.26,1s-.25.6-.25.75c0,.15-.11.49-.25.75s-.25.61-.25.77c0,.3-.04.41-.56,1.43-.15.31-.28.67-.28.81,0,.22-.26.79-.69,1.55-.08.14-.19.36-.24.5-.25.64-1.6,3.22-1.73,3.33-.06.05-.16.2-.22.33-.3.63-2.67,4.14-2.93,4.33-.06.04-.41.46-.77.91-1.09,1.36-1.28,1.58-2.44,2.73-1.27,1.26-2.64,2.49-3.47,3.1-.31.23-.61.47-.66.54-.05.07-.22.2-.38.29-.16.09-.68.44-1.17.77-1.88,1.29-3,1.98-3.21,1.98-.12,0-.25.06-.28.12-.07.16-2.16,1.21-2.41,1.21-.1,0-.28.11-.4.25-.11.14-.34.25-.5.25s-.51.11-.77.25-.6.25-.76.25c-.15,0-.32.07-.38.15-.05.08-.39.2-.76.26s-.67.18-.67.26-.24.15-.54.15c-.3,0-.76.11-1.02.25-.26.14-.74.25-1.05.25s-.74.09-.94.2c-.2.11-1,.26-1.78.33s-1.87.2-2.42.29l-1,.16,1.25-.06c1.6-.08,3.62-.34,4.54-.58.39-.1,1.16-.31,1.71-.45,8.37-2.19,16.98-8.34,21.75-15.54.14-.21.46-.67.71-1.02.25-.36.46-.68.46-.73s.3-.57.67-1.17c.65-1.07,1.71-3.09,2.22-4.25.65-1.49,1.28-3.1,1.28-3.28,0-.11.11-.45.23-.75.13-.3.36-1,.52-1.55.16-.55.35-1.24.44-1.54.43-1.44.95-4.8,1.16-7.54.23-2.92.07-9.86-.27-11.67l-.23-1.25.08,1.08M350.11,42.42c-.14,3.63-.57,5.63-1.8,8.43-3.4,7.72-12.14,8.97-16.53,2.36-1.72-2.58-2.47-4.52-3.09-8.03l-.13-.75-.02.79c-.01.44.05.92.14,1.08.09.16.2.64.26,1.08.06.43.17.83.26.89.09.05.16.26.16.47s.11.52.24.7c.13.18.25.48.25.68s.12.45.26.56c.14.11.25.31.25.42,0,.27,1.06,2.06,1.5,2.54.18.2.33.39.33.44,0,.61,3.39,3.09,4.24,3.1.19,0,.49.12.66.25.45.34,3.83.34,4.43,0,.23-.13.61-.24.85-.24.24,0,.53-.12.65-.26.11-.14.31-.25.44-.25.71,0,2.64-1.84,3.84-3.67,1.27-1.92,1.77-3.1,2.55-6,.36-1.33.76-6.84.54-7.25-.1-.19-.19.69-.27,2.66M.05,42.64l.05,2.79h35.83v-5.5l-17.96-.04-17.96-.04.05,2.79M35.64,42.64l-.05,2.62H.26l-.05-2.62-.05-2.62h35.52l-.05,2.62M374.02,43.27c0,1.74.07,2.7.15,2.5.2-.46.2-4.78,0-5.08-.11-.17-.16.7-.15,2.58M317.71,41.35c0,.32.03.45.08.29.04-.16.04-.42,0-.58-.04-.16-.08-.03-.08.29M317.92,43.1c.21,5.95,3.92,12.11,9.35,15.54,2.36,1.49,6.93,3.09,8.63,3.03.71-.03-.78-.46-1.64-.48-.46-.01-.98-.13-1.16-.26-.18-.14-.53-.25-.78-.25s-.7-.12-1.01-.28c-1-.5-1.13-.56-1.37-.56-.13,0-.32-.11-.44-.25-.11-.14-.34-.25-.5-.25s-.39-.11-.5-.25c-.11-.14-.34-.25-.5-.25s-.34-.11-.39-.25c-.05-.14-.24-.25-.42-.25s-.35-.06-.38-.13c-.03-.07-.5-.48-1.05-.9-1.31-1.01-2.56-2.21-3.26-3.14-.31-.41-.62-.78-.69-.81-.07-.03-.13-.16-.13-.28s-.09-.29-.21-.36c-.28-.18-.5-.56-1.21-2.05-.33-.69-.67-1.38-.75-1.54-.09-.16-.16-.43-.16-.59s-.11-.45-.24-.63c-.13-.18-.25-.55-.25-.83,0-.28-.09-.59-.19-.69-.1-.1-.26-.74-.35-1.41-.09-.67-.22-1.64-.3-2.14l-.14-.92.04,1.17M277.19,44.59c-.02.37.08.7.82,3.01,2.25,6.95,8.31,12.08,15.66,13.25.5.08,1.4.22,2,.32,2.48.39,6.84.12,9.23-.58.45-.13.95-.24,1.11-.24s.35-.07.4-.15c.05-.08.29-.2.53-.26,2.46-.62,8.64-5.05,7.11-5.1-.07,0-.68-.49-1.36-1.08-1.38-1.2-1.57-1.26-2.04-.66-.88,1.12-3.44,2.55-5.8,3.24-.69.2-1.51.44-1.83.53-.63.19-4.48.12-5.17-.08-.41-.12-.41-.12-.08.14.64.52,5.72.23,7.33-.42.18-.07.52-.18.75-.24.46-.11,2.53-1.08,2.67-1.23.05-.05.28-.2.52-.32.24-.12.78-.56,1.2-.96.91-.87,1.12-.9,1.83-.22.29.28.85.74,1.24,1.03.96.7.84.99-.88,2.11-.37.24-.71.5-.76.57-.05.07-.39.29-.75.48-.36.19-.69.39-.74.45-.09.12-1.89.99-2.92,1.43-.37.15-.82.35-1,.42-.18.08-.63.19-1,.25-.37.06-.74.17-.83.24-.09.07-.76.18-1.49.24-.73.06-1.4.18-1.49.27-.21.22-4.86.22-5.26,0-.17-.09-.93-.21-1.7-.27-.77-.06-1.48-.17-1.57-.25-.1-.08-.51-.19-.92-.25-.41-.06-.82-.17-.91-.24-.09-.07-.45-.17-.79-.24-.34-.06-.62-.18-.62-.27s-.15-.16-.34-.16-.73-.21-1.21-.47c-.48-.26-1.14-.62-1.46-.79-.32-.18-.62-.36-.67-.4-.05-.05-.46-.34-.92-.65-1.16-.79-3.46-3.08-4.21-4.18-.34-.5-.66-.95-.71-1-.05-.05-.16-.23-.26-.42-.1-.18-.3-.56-.45-.83-.15-.28-.43-.88-.62-1.33-.19-.46-.42-.96-.51-1.12-.09-.16-.16-.46-.16-.68s-.11-.53-.24-.71c-.13-.18-.25-.59-.26-.91-.01-.65-.46-1.82-.48-1.26M373.81,48.43c-.2,2.43-.75,5.09-1.73,8.42-.68,2.31-2.28,5.9-3.61,8.13-.35.57-.63,1.08-.63,1.11,0,.17-1.65,2.47-2.75,3.84-4.56,5.67-10.7,9.88-17,11.66-.55.16-1.23.35-1.5.43-.78.22-2.55.53-3.83.65l-1.17.12,1.29.03c.71.01,1.42-.04,1.58-.13.16-.09.72-.2,1.24-.26.53-.06,1-.17,1.05-.26.05-.09.34-.15.63-.15s.68-.1.86-.23c.18-.12.55-.27.83-.32.81-.15,3.06-1.06,4.42-1.79.32-.17.94-.49,1.38-.7.43-.21.79-.44.79-.51s.24-.23.54-.35c1.82-.77,7.39-5.82,9.46-8.58.5-.67.99-1.31,1.08-1.42.2-.24.28-.37,1.54-2.44.94-1.54,2.07-3.73,2.63-5.08.15-.37.38-.91.51-1.21.13-.3.24-.69.24-.86s.11-.4.25-.51c.14-.11.25-.44.26-.73,0-.29.12-.67.25-.85.13-.18.24-.57.24-.87s.07-.58.16-.64c.09-.05.21-.45.27-.88.06-.43.17-1.01.25-1.29.35-1.24.69-3.76.64-4.67l-.06-1-.11,1.33M359.54,48.22c-.11.11-.2.36-.2.55s-.11.5-.24.67c-.13.18-.25.49-.25.7,0,.21-.08.38-.16.38s-.21.17-.27.37c-.43,1.36-2.7,4.25-4.66,5.92-1.08.92-1.12.95-1.41,1.09-.14.06-.48.26-.75.44-.53.34-1.61.89-2.58,1.31-.32.14-.71.31-.85.38-.15.07-.54.18-.88.24-.33.06-.65.18-.7.26-.05.08-.33.15-.62.15-.29,0-.75.11-1.01.25s-.84.25-1.28.25c-.77,0-1.79.26-1.63.42.16.16,2.78-.37,5.05-1.03,5.68-1.65,10.41-6.06,12.43-11.6.33-.9.33-1.07.01-.75M.43,50.56c.12,1.09.53,3.16.8,4.04l.2.67,17.88.04c14.79.04,17.9,0,17.97-.18.05-.12-.03-.74-.18-1.38-.15-.63-.34-1.67-.43-2.3-.16-1.1-.43-1.89-.59-1.72-.04.04.04.4.18.81.14.4.25,1.05.26,1.45,0,.39.12.94.26,1.22.15.29.24.8.21,1.2l-.05.7-17.61.04-17.61.04-.26-.53c-.14-.29-.26-.81-.26-1.15s-.12-.9-.26-1.25c-.17-.4-.24-.98-.21-1.6.04-.71,0-.97-.16-.97s-.19.22-.12.88M3.05,59.46c-.41.17-.2.82,1.31,3.97.31.64.66,1.3.8,1.46.28.35,35.89.47,36.11.12.06-.09-.36-1.12-.93-2.29-1-2.06-1.21-2.51-1.38-3.04-.05-.16-.09-.12-.1.11,0,.2.11.61.27.92.15.31.38.75.5,1,.12.24.22.56.22.69s.06.28.12.31c.19.09,1.18,2.11,1.08,2.21-.28.28-35.49.09-35.74-.2-.14-.16-.43-.68-.64-1.17-.21-.48-.44-.88-.52-.88s-.14-.14-.14-.32-.1-.53-.23-.79c-.75-1.54-.82-1.74-.67-1.89.1-.1,6.75-.18,17.9-.2l17.74-.04-17.75-.03c-9.76-.01-17.84.01-17.96.06M337.55,61.81c.71.03,1.87.03,2.58,0,.71-.03.13-.06-1.29-.06s-2,.03-1.29.06M8.09,69.36c-.18.3,2.85,4.17,4.07,5.21l.54.45h18.16c14.86,0,18.17-.04,18.24-.22.05-.12-.59-.9-1.47-1.79-.85-.86-1.92-2.02-2.38-2.57-.46-.55-.91-1.06-1-1.12-.28-.2-36.05-.16-36.17.05M44.2,69.57c.12.12.52.59.89,1.03.37.45,1.39,1.55,2.27,2.45l1.61,1.64H12.46l-.52-.56c-1.11-1.19-3.76-4.46-3.77-4.65,0-.25,35.78-.15,36.02.1M17.77,79.17c-.15.24,3.24,2.36,5.41,3.39,2.72,1.29,7.92,2.99,9.04,2.95.52-.01-.7-.48-1.29-.49-.37,0-.85-.12-1.08-.25s-.61-.24-.86-.24c-.24,0-.65-.12-.92-.25-.26-.14-.6-.25-.76-.25-.15,0-.33-.08-.38-.17-.06-.09-.27-.17-.48-.17s-.52-.11-.7-.24c-.18-.13-.48-.25-.68-.25-.19,0-.45-.12-.56-.26-.11-.14-.29-.25-.4-.25-.25,0-2.84-1.31-3.73-1.88-.39-.25-.78-.46-.88-.46s-.17-.07-.17-.15-.16-.21-.36-.27c-.2-.06-.51-.26-.7-.43-.33-.31.06-.31,18.52-.31,12.04,0,18.89.06,18.96.16.06.09.38.29.72.44.34.15,1.07.49,1.63.75.56.26,1.12.48,1.26.48s.39.11.57.24c.18.13.48.25.68.25.19,0,.57.12.83.25s.68.25.93.25c.25,0,.49.07.54.15.05.08.58.21,1.18.27.6.06,1.12.18,1.18.26.05.08.71.13,1.46.12s1.06-.06.7-.09c-1.01-.09-3.77-.55-4.33-.72-.28-.08-1.14-.35-1.92-.59-1.54-.47-3.84-1.41-4.95-2.02l-.7-.38h-18.83c-11.25,0-18.87.06-18.93.15M136.47,82.97c37.61.02,99.14.02,136.75,0,37.61-.02,6.84-.04-68.38-.04s-105.98.02-68.38.04M33.42,85.69c1.74.24,3.73.35,2.58.14-.5-.09-1.52-.19-2.25-.22-1.31-.05-1.31-.05-.33.09M114.23,86.14c42.43.02,111.8.02,154.17,0,42.37-.02,7.65-.04-77.14-.04s-119.46.02-77.03.04"/>
</svg>